<svg width="122" height="18" viewBox="0 0 122 18" fill="none" xmlns="http://www.w3.org/2000/svg">
<path d="M-9.53674e-07 17.52V0.480019H11.448V3.38402H3.312V7.77602H10.08V10.464H3.312V17.52H-9.53674e-07ZM20.3244 7.72802C19.3484 7.72802 18.4764 7.92002 17.7084 8.30402C16.9404 8.67202 16.3884 9.20802 16.0524 9.91202V17.52H12.8364V4.94402H15.7884V7.63202C16.2364 6.76802 16.8044 6.08802 17.4924 5.59202C18.1804 5.09602 18.9084 4.82402 19.6764 4.77602C19.8524 4.77602 19.9884 4.77602 20.0844 4.77602C20.1804 4.77602 20.2604 4.78402 20.3244 4.80002V7.72802ZM27.7856 17.76C26.7776 17.76 25.8656 17.592 25.0496 17.256C24.2336 16.904 23.5376 16.432 22.9616 15.84C22.3856 15.232 21.9376 14.544 21.6176 13.776C21.3136 12.992 21.1616 12.168 21.1616 11.304C21.1616 10.104 21.4256 9.00802 21.9536 8.01602C22.4976 7.02402 23.2656 6.23202 24.2576 5.64002C25.2656 5.03202 26.4496 4.72802 27.8096 4.72802C29.1856 4.72802 30.3616 5.03202 31.3376 5.64002C32.3136 6.23202 33.0576 7.02402 33.5696 8.01602C34.0976 8.99202 34.3616 10.048 34.3616 11.184C34.3616 11.376 34.3536 11.576 34.3376 11.784C34.3216 11.976 34.3056 12.136 34.2896 12.264H24.5696C24.6336 12.904 24.8176 13.464 25.1216 13.944C25.4416 14.424 25.8416 14.792 26.3216 15.048C26.8176 15.288 27.3456 15.408 27.9056 15.408C28.5456 15.408 29.1456 15.256 29.7056 14.952C30.2816 14.632 30.6736 14.216 30.8816 13.704L33.6416 14.472C33.3376 15.112 32.8976 15.68 32.3216 16.176C31.7616 16.672 31.0976 17.064 30.3296 17.352C29.5616 17.624 28.7136 17.76 27.7856 17.76ZM24.4976 10.224H31.0736C31.0096 9.58402 30.8256 9.03202 30.5216 8.56802C30.2336 8.08802 29.8496 7.72002 29.3696 7.46402C28.8896 7.19202 28.3536 7.05602 27.7616 7.05602C27.1856 7.05602 26.6576 7.19202 26.1776 7.46402C25.7136 7.72002 25.3296 8.08802 25.0256 8.56802C24.7376 9.03202 24.5616 9.58402 24.4976 10.224ZM42.1528 17.76C41.1448 17.76 40.2328 17.592 39.4168 17.256C38.6008 16.904 37.9048 16.432 37.3288 15.84C36.7528 15.232 36.3048 14.544 35.9848 13.776C35.6808 12.992 35.5288 12.168 35.5288 11.304C35.5288 10.104 35.7928 9.00802 36.3208 8.01602C36.8648 7.02402 37.6328 6.23202 38.6248 5.64002C39.6328 5.03202 40.8168 4.72802 42.1768 4.72802C43.5528 4.72802 44.7288 5.03202 45.7048 5.64002C46.6808 6.23202 47.4248 7.02402 47.9368 8.01602C48.4648 8.99202 48.7288 10.048 48.7288 11.184C48.7288 11.376 48.7208 11.576 48.7048 11.784C48.6888 11.976 48.6728 12.136 48.6568 12.264H38.9368C39.0008 12.904 39.1848 13.464 39.4888 13.944C39.8088 14.424 40.2088 14.792 40.6888 15.048C41.1848 15.288 41.7128 15.408 42.2728 15.408C42.9128 15.408 43.5128 15.256 44.0728 14.952C44.6488 14.632 45.0408 14.216 45.2488 13.704L48.0088 14.472C47.7048 15.112 47.2648 15.68 46.6888 16.176C46.1288 16.672 45.4648 17.064 44.6968 17.352C43.9288 17.624 43.0808 17.76 42.1528 17.76ZM38.8648 10.224H45.4408C45.3768 9.58402 45.1928 9.03202 44.8888 8.56802C44.6008 8.08802 44.2168 7.72002 43.7368 7.46402C43.2568 7.19202 42.7208 7.05602 42.1288 7.05602C41.5528 7.05602 41.0248 7.19202 40.5448 7.46402C40.0808 7.72002 39.6968 8.08802 39.3928 8.56802C39.1048 9.03202 38.9288 9.58402 38.8648 10.224ZM50.664 1.90735e-05H53.88V13.488C53.88 14.064 53.976 14.456 54.168 14.664C54.36 14.856 54.624 14.952 54.96 14.952C55.216 14.952 55.48 14.92 55.752 14.856C56.024 14.792 56.264 14.712 56.472 14.616L56.904 17.064C56.472 17.272 55.968 17.432 55.392 17.544C54.816 17.656 54.296 17.712 53.832 17.712C52.824 17.712 52.04 17.448 51.48 16.92C50.936 16.376 50.664 15.608 50.664 14.616V1.90735e-05ZM57.4412 13.8C57.4412 12.984 57.6652 12.272 58.1132 11.664C58.5772 11.04 59.2172 10.56 60.0332 10.224C60.8492 9.88802 61.7852 9.72002 62.8412 9.72002C63.3692 9.72002 63.9052 9.76002 64.4492 9.84002C64.9932 9.92002 65.4652 10.048 65.8652 10.224V9.55202C65.8652 8.75202 65.6252 8.13602 65.1452 7.70402C64.6812 7.27202 63.9852 7.05602 63.0572 7.05602C62.3692 7.05602 61.7132 7.17602 61.0892 7.41602C60.4652 7.65602 59.8092 8.00802 59.1212 8.47202L58.0892 6.36002C58.9212 5.81602 59.7692 5.40802 60.6332 5.13602C61.5132 4.86402 62.4332 4.72802 63.3932 4.72802C65.1852 4.72802 66.5772 5.17602 67.5692 6.07202C68.5772 6.96802 69.0812 8.24802 69.0812 9.91202V13.92C69.0812 14.256 69.1372 14.496 69.2492 14.64C69.3772 14.784 69.5772 14.872 69.8492 14.904V17.52C69.5612 17.568 69.2972 17.608 69.0572 17.64C68.8332 17.672 68.6412 17.688 68.4812 17.688C67.8412 17.688 67.3532 17.544 67.0172 17.256C66.6972 16.968 66.4972 16.616 66.4172 16.2L66.3452 15.552C65.8012 16.256 65.1212 16.8 64.3052 17.184C63.4892 17.568 62.6572 17.76 61.8092 17.76C60.9772 17.76 60.2252 17.592 59.5532 17.256C58.8972 16.904 58.3772 16.432 57.9932 15.84C57.6252 15.232 57.4412 14.552 57.4412 13.8ZM65.2652 14.448C65.4412 14.256 65.5852 14.064 65.6972 13.872C65.8092 13.68 65.8652 13.504 65.8652 13.344V12.072C65.4812 11.912 65.0652 11.792 64.6172 11.712C64.1692 11.616 63.7452 11.568 63.3452 11.568C62.5132 11.568 61.8252 11.752 61.2812 12.12C60.7532 12.472 60.4892 12.944 60.4892 13.536C60.4892 13.856 60.5772 14.16 60.7532 14.448C60.9292 14.736 61.1852 14.968 61.5212 15.144C61.8572 15.32 62.2572 15.408 62.7212 15.408C63.2012 15.408 63.6732 15.32 64.1372 15.144C64.6012 14.952 64.9772 14.72 65.2652 14.448ZM83.7744 17.52H80.5584V10.464C80.5584 9.45602 80.3824 8.72002 80.0304 8.25602C79.6784 7.79202 79.1904 7.56002 78.5664 7.56002C78.1344 7.56002 77.6944 7.67202 77.2464 7.89602C76.8144 8.12002 76.4224 8.43202 76.0704 8.83202C75.7184 9.21602 75.4624 9.66402 75.3024 10.176V17.52H72.0864V4.94402H74.9904V7.27202C75.3104 6.72802 75.7184 6.27202 76.2144 5.90402C76.7104 5.52002 77.2784 5.23202 77.9184 5.04002C78.5744 4.83202 79.2624 4.72802 79.9824 4.72802C80.7664 4.72802 81.4064 4.87202 81.9024 5.16002C82.4144 5.43202 82.7984 5.80802 83.0544 6.28802C83.3264 6.75202 83.5104 7.28002 83.6064 7.87202C83.7184 8.46402 83.7744 9.06402 83.7744 9.67202V17.52ZM92.4268 17.76C91.4028 17.76 90.4828 17.592 89.6668 17.256C88.8508 16.904 88.1548 16.424 87.5788 15.816C87.0028 15.192 86.5548 14.488 86.2348 13.704C85.9308 12.92 85.7788 12.096 85.7788 11.232C85.7788 10.048 86.0428 8.96802 86.5708 7.99202C87.1148 7.00002 87.8828 6.20802 88.8748 5.61602C89.8668 5.02402 91.0428 4.72802 92.4028 4.72802C93.7628 4.72802 94.9308 5.02402 95.9068 5.61602C96.8828 6.20802 97.6108 6.98402 98.0908 7.94402L94.9468 8.90402C94.6748 8.44002 94.3148 8.08802 93.8668 7.84802C93.4188 7.59202 92.9228 7.46402 92.3788 7.46402C91.7708 7.46402 91.2108 7.62402 90.6988 7.94402C90.2028 8.24802 89.8108 8.68802 89.5228 9.26402C89.2348 9.82402 89.0908 10.48 89.0908 11.232C89.0908 11.968 89.2348 12.624 89.5228 13.2C89.8268 13.76 90.2268 14.208 90.7228 14.544C91.2188 14.864 91.7708 15.024 92.3788 15.024C92.7628 15.024 93.1228 14.96 93.4588 14.832C93.8108 14.704 94.1228 14.528 94.3948 14.304C94.6668 14.08 94.8668 13.824 94.9948 13.536L98.1388 14.496C97.8508 15.12 97.4268 15.68 96.8668 16.176C96.3228 16.672 95.6748 17.064 94.9228 17.352C94.1868 17.624 93.3548 17.76 92.4268 17.76ZM105.832 17.76C104.824 17.76 103.912 17.592 103.096 17.256C102.28 16.904 101.584 16.432 101.008 15.84C100.432 15.232 99.9845 14.544 99.6645 13.776C99.3605 12.992 99.2085 12.168 99.2085 11.304C99.2085 10.104 99.4725 9.00802 100 8.01602C100.544 7.02402 101.312 6.23202 102.304 5.64002C103.312 5.03202 104.496 4.72802 105.856 4.72802C107.232 4.72802 108.408 5.03202 109.384 5.64002C110.36 6.23202 111.104 7.02402 111.616 8.01602C112.144 8.99202 112.408 10.048 112.408 11.184C112.408 11.376 112.4 11.576 112.384 11.784C112.368 11.976 112.352 12.136 112.337 12.264H102.616C102.68 12.904 102.864 13.464 103.168 13.944C103.488 14.424 103.888 14.792 104.368 15.048C104.864 15.288 105.392 15.408 105.952 15.408C106.592 15.408 107.192 15.256 107.752 14.952C108.328 14.632 108.72 14.216 108.928 13.704L111.688 14.472C111.385 15.112 110.944 15.68 110.368 16.176C109.808 16.672 109.144 17.064 108.376 17.352C107.608 17.624 106.76 17.76 105.832 17.76ZM102.544 10.224H109.12C109.056 9.58402 108.872 9.03202 108.568 8.56802C108.28 8.08802 107.896 7.72002 107.416 7.46402C106.936 7.19202 106.4 7.05602 105.808 7.05602C105.232 7.05602 104.704 7.19202 104.224 7.46402C103.76 7.72002 103.376 8.08802 103.072 8.56802C102.784 9.03202 102.608 9.58402 102.544 10.224ZM121.856 7.72802C120.88 7.72802 120.008 7.92002 119.24 8.30402C118.472 8.67202 117.92 9.20802 117.584 9.91202V17.52H114.368V4.94402H117.32V7.63202C117.768 6.76802 118.336 6.08802 119.024 5.59202C119.712 5.09602 120.44 4.82402 121.208 4.77602C121.384 4.77602 121.52 4.77602 121.616 4.77602C121.712 4.77602 121.792 4.78402 121.856 4.80002V7.72802Z" fill="#C4C4C4"/>
</svg>
